[img]http://www.khaolaknews.com/wp-content/uploads/2011/03/f1.jpg[/img]

Formula One 2011 Season

Race 17: Indian Grand Prix, India.

Record Source: BBC One Red Button Stream
Original Format: MPEG TS Stream
Date: Saturday 29th October 2011
Time: 06:30 to 07:30

India Grand Prix Practice Session 3

Formula 1 Welcomes The Brand New Greater Noida Circuit from India!!

BBC F1 coverage of the 3rd Practice Session for the 17th Race meeting of the 
2011 Formula One Season, The Indian Grand Prix from the Greater Noida Curcuit

**SPECIAL NOTE** For all my followers of my torrents, I have had many requests
asking if its still possible to continue providing these torrent for 2012 when 
the F1 coverage moves to SKY SPORTS. 

I am pleased to announce that i WILL NOW be continuing to upload the 
Formula 1 for 2012 as I have invested in new Satellite Equipment & Motorised Dish
which will enable me to provide the 12 Races the BBC has agreed in its contract 
to cover for 2012, in Full HD.

For the remaining Races, I will be uploading SKY SPORTS coverage of every
Practice Sessions, Qualifying & Race also in Full HD.. (Im just hoping SKY
keep to their promise and keep the commercials out of their coverage!)

Looking Forward To 2012! 

Enjoy, TheBlackKnight



Complete name                    : F1 2011 Race 17 India Practice 3.mkv
Format                           : Matroska
Format version                   : Version 2
File size                        : 819 MiB
Duration                         : 1h 10mn
Overall bit rate                 : 1 633 Kbps
Writing application              : HandBrake 0.9.5
Writing library                  : libmkv 0.6.4.1

Video
ID                               : 1
Format                           : AVC
Format/Info                      : Advanced Video Codec
Format profile                   : Main@L3.0
Format settings, CABAC           : Yes
Format settings, ReFrames        : 4 frames
Codec ID                         : V_MPEG4/ISO/AVC
Duration                         : 1h 10mn
Bit rate                         : 1 500 Kbps
Width                            : 544 pixels
Height                           : 576 pixels
Display aspect ratio             : 16:9
Frame rate mode                  : Variable
Frame rate                       : 25.000 fps
Color space                      : YUV
Chroma subsampling               : 4:2:0
Bit depth                        : 8 bits
Scan type                        : Progressive
Bits/(Pixel*Frame)               : 0.191
Stream size                      : 738 MiB (90%)
Writing library                  : x264 core 112
Encoding settings                : cabac=1 / ref=2 / deblock=1:0:0 / analyse=0x1:0x111 / me=hex / subme=6 / psy=1 / 

psy_rd=1.00:0.00 / mixed_ref=0 / me_range=16 / chroma_me=1 / trellis=0 / 8x8dct=0 / cqm=0 / deadzone=21,11 / fast_pskip=1 / 

chroma_qp_offset=-2 / threads=3 / sliced_threads=0 / nr=0 / decimate=1 / interlaced=0 / constrained_intra=0 / bframes=2 / 

b_pyramid=2 / b_adapt=1 / b_bias=0 / direct=1 / weightb=0 / open_gop=0 / weightp=2 / keyint=250 / keyint_min=25 / scenecut=40 

/ intra_refresh=0 / rc_lookahead=40 / rc=abr / mbtree=1 / bitrate=1500 / ratetol=1.0 / qcomp=0.60 / qpmin=3 / qpmax=51 / 

qpstep=4 / ip_ratio=1.40 / aq=1:1.00
Language                         : English
Color primaries                  : BT.601-6 525, BT.1358 525, BT.1700 NTSC, SMPTE 170M
Transfer characteristics         : BT.709-5, BT.1361
Matrix coefficients              : BT.601-6 525, BT.1358 525, BT.1700 NTSC, SMPTE 170M

Audio
ID                               : 2
Format                           : AC-3
Format/Info                      : Audio Coding 3
Mode extension                   : CM (complete main)
Codec ID                         : A_AC3
Duration                         : 1h 10mn
Bit rate mode                    : Constant
Bit rate                         : 128 Kbps
Channel(s)                       : 2 channels
Channel positions                : Front: L R
Sampling rate                    : 48.0 KHz
Bit depth                        : 16 bits
Compression mode                 : Lossy
Stream size                      : 64.2 MiB (8%)
Language                         : English

